<svg width="20" height="800" viewBox="0 0 20 800" fill="none" xmlns="http://www.w3.org/2000/svg">
<g clip-path="url(#clip0_340_27)">
<path d="M19.9999 0H10.4308C10.4965 1.549 10.6857 3.17203 10.883 4.86603C11.3498 8.87403 11.8625 13.275 10.8923 18C10.9455 21.521 11.3461 23.951 11.7382 26.33C11.9347 27.522 12.1293 28.702 12.277 30C12.4831 31.812 12.2775 33.011 12.0778 34.175C11.9272 35.053 11.78 35.912 11.8154 37C11.8346 37.584 11.9753 38.303 12.0973 38.928C12.1806 39.353 12.2553 39.735 12.277 40C12.4343 41.908 12.0029 45.021 11.6745 47.39C11.5231 48.482 11.3937 49.416 11.3539 50C11.2582 51.406 11.2617 52.512 11.2646 53.469C11.2685 54.799 11.2717 55.842 11.0077 57C11.006 59.494 11.0253 60.014 11.3539 61C11.3134 63.029 11.2524 63.487 11.0077 64.5C11.0295 67.311 11.1882 67.945 11.5846 69C11.4965 73.294 11.3417 78.458 11.3539 84C11.4345 84.324 11.5114 84.653 11.5878 84.979C11.7997 85.886 12.008 86.776 12.277 87.5C12.2619 88.513 12.1938 89.264 12.1293 89.975C12.0358 91.008 11.9499 91.956 12.0463 93.5C12.1135 94.576 12.3071 95.893 12.4772 97.05C12.5883 97.805 12.6894 98.493 12.7385 99C12.9042 100.708 12.9159 114.212 12.7385 116.5C12.7079 116.895 12.6078 117.323 12.5077 117.752C12.4076 118.179 12.3075 118.606 12.277 119L12.277 131L11.8154 133C11.6525 134.322 11.601 135.531 11.5475 136.784C11.5043 137.799 11.4599 138.843 11.3539 140C11.2848 140.754 11.1659 141.416 11.0441 142.093C10.8884 142.96 10.728 143.854 10.6616 145C10.5351 147.184 10.6769 148.96 10.8268 150.838C10.9904 152.886 11.1635 155.053 11.0077 158C10.976 158.6 10.9199 159.267 10.8598 159.98C10.7075 161.793 10.5295 163.908 10.6616 166C10.7643 167.626 11.0053 169.225 11.2448 170.814C11.4809 172.379 11.7155 173.935 11.8154 175.5C12.0644 179.398 11.6689 182.522 11.361 184.953C11.2663 185.7 11.1801 186.381 11.1232 187C10.8298 190.196 11.1 192.669 11.3644 195.086C11.5717 196.983 11.7753 198.847 11.7001 201C11.6479 202.496 11.509 203.991 11.3735 205.45C11.0619 208.802 10.7682 211.963 11.5846 214.5C11.5395 216.915 11.2885 219.323 11.0536 221.577C10.8906 223.142 10.735 224.632 10.6616 226C10.6042 227.065 10.7053 227.876 10.8058 228.685C10.9264 229.653 11.0463 230.615 10.8923 232C10.8256 232.6 10.7306 233.346 10.622 234.2C10.0905 238.38 9.23064 245.139 9.73846 250L10.0846 251L9.96917 266C10.1471 268.424 10.9008 273.456 11.3539 275V283.5C11.2927 284.137 10.9577 285.049 10.8923 286L10.777 298.5C10.7106 299.536 10.5558 300.299 10.4033 301.05C10.2792 301.661 10.1567 302.264 10.0846 303C9.97283 304.141 9.97356 305.325 9.97454 306.554C9.97552 307.821 9.97649 309.136 9.85394 310.5L9.50774 312L9.39227 319.5L9.04632 321C8.86736 323.729 9.24847 326.855 9.48309 328.779C9.54363 329.275 9.59441 329.691 9.62322 330L9.50774 342.5L9.73846 343.5C9.83416 345.287 9.66961 345.966 9.50677 346.637C9.41302 347.023 9.31976 347.408 9.27703 348C8.7282 355.6 9.7636 368.337 10.4308 372C10.3151 372.278 10.2372 372.534 10.1618 372.806C10.102 373.021 10.0436 373.246 9.96917 373.5C9.9699 375.163 10.0026 376.476 10.0846 377.5C10.1286 377.463 10.1638 377.436 10.1928 377.413C10.321 377.313 10.33 377.306 10.4308 377H10.6616C10.6452 378.921 10.5087 379.624 10.3803 380.286C10.3112 380.642 10.2446 380.986 10.2001 381.5C10.124 382.38 10.238 383.891 10.3603 385.511C10.53 387.76 10.7155 390.221 10.4308 391.5L10.4379 391.821C10.4572 392.712 10.4628 392.969 10.5463 393.5C10.6452 393.73 10.7734 393.829 10.914 393.937C11.1283 394.103 11.372 394.29 11.5846 395C12.3864 397.179 11.6674 406.801 11.4015 410.359L11.3539 411L11.3539 419C11.1799 421.627 10.9797 425.857 11.3539 428.5L11.8154 430L11.8154 442L12.1616 443.5C12.2321 444.845 12.1284 445.223 12.0151 445.636C11.9318 445.939 11.8434 446.261 11.8154 447C11.7421 448.931 11.8161 451.674 11.8854 454.254C11.9543 456.816 12.019 459.216 11.9308 460.5C11.9191 460.672 9.87933 474.918 9.85394 475C9.86663 477.877 10.0265 479.232 10.1933 480.646C10.2765 481.351 10.3615 482.07 10.4308 483C10.6506 485.951 10.499 488.541 10.352 491.047C10.2353 493.038 10.1218 494.976 10.2001 497C10.3449 500.746 10.6537 504.225 10.9689 507.776C11.3102 511.622 11.6594 515.553 11.8154 520C11.8686 521.514 11.6423 524.196 11.3957 527.115C11.082 530.831 10.7358 534.931 10.8923 537.5C10.9697 538.77 11.1699 540.415 11.3598 541.977C11.4938 543.08 11.6227 544.141 11.7001 545L11.8154 554C11.9162 555.634 11.9733 557.561 12.0307 559.496C12.0934 561.61 12.1564 563.734 12.277 565.5V572.5C12.301 572.79 12.3371 573.168 12.3791 573.608C12.5588 575.484 12.8451 578.478 12.7385 580.5C12.7275 580.71 12.6606 581.229 12.5881 581.789C12.5038 582.441 12.4123 583.149 12.3923 583.5L12.5077 591C12.4423 591.678 12.3134 592.225 12.1764 592.807C11.9804 593.639 11.7678 594.542 11.7001 596C11.6313 597.481 11.7768 598.469 11.904 599.331C11.9636 599.736 12.019 600.113 12.0463 600.5L12.0463 608C12.0742 608.369 12.1391 608.648 12.207 608.941C12.3376 609.503 12.4794 610.114 12.3923 611.5L11.9308 613.5L11.8154 618.5C11.7321 619.302 11.5182 620.047 11.3107 620.771C11.1428 621.356 10.9792 621.926 10.8923 622.5C10.6674 623.986 10.7209 625.795 10.7724 627.532C10.809 628.772 10.8447 629.976 10.777 631C10.7162 631.92 10.5424 632.751 10.3598 633.623C10.1498 634.627 9.92815 635.686 9.85394 637C9.76385 638.592 9.91448 639.475 10.0453 640.242C10.1174 640.663 10.1833 641.05 10.2001 641.5C10.2126 641.836 10.1174 642.267 10.0451 642.594C10.006 642.77 9.97381 642.916 9.96917 643C9.88006 644.591 9.87029 645.853 9.86199 646.918C9.8471 648.817 9.83709 650.093 9.39227 651.5C9.4096 656.015 9.73602 657.605 10.0536 659.153C10.2436 660.078 10.4306 660.989 10.5463 662.5L10.3154 670C10.4511 672.109 10.8488 676.646 11.0077 679V690L11.3539 691.5C11.5026 693.704 11.2429 695.012 10.9955 696.256C10.8532 696.972 10.715 697.667 10.6616 698.5C10.2673 704.635 10.8932 714.162 11.3539 717.5C11.299 717.65 11.2099 717.859 11.1076 718.098C10.8566 718.685 10.527 719.457 10.4308 720C10.2455 721.045 10.2902 722.684 10.3364 724.377C10.3757 725.823 10.4162 727.31 10.3154 728.5C10.2851 728.857 9.50066 732.62 9.39227 733C9.41253 735.438 9.55633 736.445 9.70452 737.484C9.80218 738.169 9.90179 738.868 9.96917 740C10.0825 741.31 9.9118 742.067 9.72356 742.903C9.59124 743.49 9.45037 744.116 9.39227 745C9.25921 747.029 9.3991 748.656 9.54876 750.394C9.70892 752.257 9.88006 754.248 9.73846 757C9.29022 765.713 9.06439 778.611 10.5463 783.5C10.486 784.673 10.3823 785.04 10.2824 785.393C10.2075 785.658 10.1347 785.915 10.0846 786.5C9.87371 788.965 10.1181 790.833 10.3276 792.43C10.424 793.167 10.5129 793.846 10.5463 794.5C10.62 795.95 10.5331 796.966 10.444 798.012C10.391 798.632 10.3371 799.263 10.3154 800H19.9999L19.9999 0Z" fill="none"/>
</g>
<defs>
<clipPath id="clip0_340_27">
<rect width="800" height="20" fill="none" transform="matrix(0 -1 1 0 0 800)"/>
</clipPath>
</defs>
</svg>