<svg width="800" height="20" viewBox="0 0 800 20" fill="none" xmlns="http://www.w3.org/2000/svg">
<path d="M800 19.9999V10.4308C798.451 10.4965 796.828 10.6857 795.134 10.883C791.126 11.3498 786.725 11.8625 782 10.8923C778.479 10.9455 776.049 11.3461 773.67 11.7382C772.478 11.9347 771.298 12.1293 770 12.277C768.188 12.4831 766.989 12.2775 765.825 12.0778C764.947 11.9272 764.088 11.78 763 11.8154C762.416 11.8346 761.697 11.9753 761.072 12.0973C760.647 12.1806 760.265 12.2553 760 12.277C758.092 12.4343 754.979 12.0029 752.61 11.6745C751.518 11.5231 750.584 11.3937 750 11.3539C748.594 11.2582 747.488 11.2617 746.531 11.2646C745.201 11.2685 744.158 11.2717 743 11.0077C740.506 11.006 739.986 11.0253 739 11.3539C736.971 11.3134 736.513 11.2524 735.5 11.0077C732.689 11.0295 732.055 11.1882 731 11.5846C726.706 11.4965 721.542 11.3417 716 11.3539C715.676 11.4345 715.347 11.5114 715.021 11.5878C714.114 11.7997 713.224 12.008 712.5 12.277C711.487 12.2619 710.736 12.1938 710.025 12.1293C708.992 12.0358 708.044 11.9499 706.5 12.0463C705.424 12.1135 704.107 12.3071 702.95 12.4772C702.195 12.5883 701.507 12.6894 701 12.7385C699.292 12.9042 685.788 12.9159 683.5 12.7385C683.105 12.7079 682.677 12.6078 682.248 12.5077C681.821 12.4076 681.394 12.3075 681 12.277H669L667 11.8154C665.678 11.6525 664.469 11.601 663.216 11.5475C662.201 11.5043 661.157 11.4599 660 11.3539C659.246 11.2848 658.584 11.1659 657.907 11.0441C657.04 10.8884 656.146 10.728 655 10.6616C652.816 10.5351 651.04 10.6769 649.162 10.8268C647.114 10.9904 644.947 11.1635 642 11.0077C641.4 10.976 640.733 10.9199 640.02 10.8598C638.207 10.7075 636.092 10.5295 634 10.6616C632.374 10.7643 630.775 11.0053 629.186 11.2448C627.621 11.4809 626.065 11.7155 624.5 11.8154C620.602 12.0644 617.478 11.6689 615.047 11.361C614.3 11.2663 613.619 11.1801 613 11.1232C609.804 10.8298 607.331 11.1 604.914 11.3644C603.017 11.5717 601.153 11.7753 599 11.7001C597.504 11.6479 596.009 11.509 594.55 11.3735C591.198 11.0619 588.037 10.7682 585.5 11.5846C583.085 11.5395 580.677 11.2885 578.423 11.0536C576.858 10.8906 575.368 10.735 574 10.6616C572.935 10.6042 572.124 10.7053 571.315 10.8058C570.347 10.9264 569.385 11.0463 568 10.8923C567.4 10.8256 566.654 10.7306 565.8 10.622C561.62 10.0905 554.861 9.23064 550 9.73846L549 10.0846L534 9.96917C531.576 10.1471 526.544 10.9008 525 11.3539H516.5C515.863 11.2927 514.951 10.9577 514 10.8923L501.5 10.777C500.464 10.7106 499.701 10.5558 498.95 10.4033C498.339 10.2792 497.736 10.1567 497 10.0846C495.859 9.97283 494.675 9.97356 493.446 9.97454C492.179 9.97552 490.864 9.97649 489.5 9.85394L488 9.50774L480.5 9.39227L479 9.04632C476.271 8.86736 473.145 9.24847 471.221 9.48309C470.725 9.54363 470.309 9.59441 470 9.62322L457.5 9.50774L456.5 9.73846C454.713 9.83416 454.034 9.66961 453.363 9.50677C452.977 9.41302 452.592 9.31976 452 9.27703C444.4 8.7282 431.663 9.7636 428 10.4308C427.722 10.3151 427.466 10.2372 427.194 10.1618C426.979 10.102 426.754 10.0436 426.5 9.96917C424.837 9.9699 423.524 10.0026 422.5 10.0846C422.537 10.1286 422.564 10.1638 422.587 10.1928C422.687 10.321 422.694 10.33 423 10.4308V10.6616C421.079 10.6452 420.376 10.5087 419.714 10.3803C419.358 10.3112 419.014 10.2446 418.5 10.2001C417.62 10.124 416.109 10.238 414.489 10.3603C412.24 10.53 409.779 10.7155 408.5 10.4308L408.179 10.4379C407.288 10.4572 407.031 10.4628 406.5 10.5463C406.27 10.6452 406.171 10.7734 406.063 10.914C405.897 11.1283 405.71 11.372 405 11.5846C402.821 12.3864 393.199 11.6674 389.641 11.4015L389 11.3539H381C378.373 11.1799 374.143 10.9797 371.5 11.3539L370 11.8154H358L356.5 12.1616C355.155 12.2321 354.777 12.1284 354.364 12.0151C354.061 11.9318 353.739 11.8434 353 11.8154C351.069 11.7421 348.326 11.8161 345.746 11.8854C343.184 11.9543 340.784 12.019 339.5 11.9308C339.328 11.9191 325.082 9.87933 325 9.85394C322.123 9.86663 320.768 10.0265 319.354 10.1933C318.649 10.2765 317.93 10.3615 317 10.4308C314.049 10.6506 311.459 10.499 308.953 10.352C306.962 10.2353 305.024 10.1218 303 10.2001C299.254 10.3449 295.775 10.6537 292.224 10.9689C288.378 11.3102 284.447 11.6594 280 11.8154C278.486 11.8686 275.804 11.6423 272.885 11.3957C269.169 11.082 265.069 10.7358 262.5 10.8923C261.23 10.9697 259.585 11.1699 258.023 11.3598C256.92 11.4938 255.859 11.6227 255 11.7001L246 11.8154C244.366 11.9162 242.439 11.9733 240.504 12.0307C238.39 12.0934 236.266 12.1564 234.5 12.277H227.5C227.21 12.301 226.832 12.3371 226.392 12.3791C224.516 12.5588 221.522 12.8451 219.5 12.7385C219.29 12.7275 218.771 12.6606 218.211 12.5881C217.559 12.5038 216.851 12.4123 216.5 12.3923L209 12.5077C208.322 12.4423 207.775 12.3134 207.193 12.1764C206.361 11.9804 205.458 11.7678 204 11.7001C202.519 11.6313 201.531 11.7768 200.669 11.904C200.264 11.9636 199.887 12.019 199.5 12.0463H192C191.631 12.0742 191.352 12.1391 191.059 12.207C190.497 12.3376 189.886 12.4794 188.5 12.3923L186.5 11.9308L181.5 11.8154C180.698 11.7321 179.953 11.5182 179.229 11.3107C178.644 11.1428 178.074 10.9792 177.5 10.8923C176.014 10.6674 174.205 10.7209 172.468 10.7724C171.228 10.809 170.024 10.8447 169 10.777C168.08 10.7162 167.249 10.5424 166.377 10.3598C165.373 10.1498 164.314 9.92815 163 9.85394C161.408 9.76385 160.525 9.91448 159.758 10.0453C159.337 10.1174 158.95 10.1833 158.5 10.2001C158.164 10.2126 157.733 10.1174 157.406 10.0451C157.23 10.006 157.084 9.97381 157 9.96917C155.409 9.88006 154.147 9.87029 153.082 9.86199C151.183 9.8471 149.907 9.83709 148.5 9.39227C143.985 9.4096 142.395 9.73602 140.847 10.0536C139.922 10.2436 139.011 10.4306 137.5 10.5463L130 10.3154C127.891 10.4511 123.354 10.8488 121 11.0077H110L108.5 11.3539C106.296 11.5026 104.988 11.2429 103.744 10.9955C103.028 10.8532 102.333 10.715 101.5 10.6616C95.365 10.2673 85.838 10.8932 82.5 11.3539C82.3499 11.299 82.1411 11.2099 81.9016 11.1076C81.3147 10.8566 80.5433 10.527 80 10.4308C78.9548 10.2455 77.3162 10.2902 75.6228 10.3364C74.1765 10.3757 72.6903 10.4162 71.5 10.3154C71.1429 10.2851 67.38 9.50066 67 9.39227C64.5623 9.41253 63.5548 9.55633 62.5161 9.70452C61.8309 9.80218 61.1321 9.90179 60 9.96917C58.6897 10.0825 57.9332 9.9118 57.0972 9.72356C56.5104 9.59124 55.8843 9.45037 55 9.39227C52.9706 9.25921 51.344 9.3991 49.6057 9.54876C47.7432 9.70892 45.7523 9.88006 43 9.73846C34.287 9.29022 21.389 9.06439 16.5 10.5463C15.3269 10.486 14.9597 10.3823 14.6071 10.2824C14.3419 10.2075 14.085 10.1347 13.5 10.0846C11.0347 9.87371 9.16748 10.1181 7.56995 10.3276C6.83337 10.424 6.15417 10.5129 5.5 10.5463C4.05042 10.62 3.03357 10.5331 1.98828 10.444C1.3678 10.391 0.737183 10.3371 0 10.3154V19.9999H800Z" fill="#FFFDFB"/>
</svg>